# xmcd
#
# Track frame offsets:
#	150
#	18685
#	35333
#	53488
#	66275
#	82515
#	96190
#	112498
#	125590
#	139208
#	151690
#	168140
#	182793
#	193828
#	206915
#	222008
#
# Disc length: 3164 seconds
#
# Revision: 1
# Processed by: cddbd v1.5.1PL0 Copyright (c) Steve Scherf et al.
# Submitted via: CDex 1.50Beta5
#
DISCID=e00c5a10
DTITLE=石原裕次郎 - The Super Star 石原裕次郎 29
DYEAR=1900
DGENRE=
TTITLE0=懐かしのブルース
TTITLE1=白い花の咲く頃
TTITLE2=フランチェスカの鐘
TTITLE3=別れのタンゴ
TTITLE4=夜のプラットホーム
TTITLE5=水色のワルツ
TTITLE6=人生劇場
TTITLE7=夕べかすかに
TTITLE8=男の純情
TTITLE9=啄木の歌
TTITLE10=回想譜
TTITLE11=青い背広で
TTITLE12=東京娘
TTITLE13=緑の地平線
TTITLE14=東京ラブソディー
TTITLE15=サーカスの唄
EXTD=
EXTT0=
EXTT1=
EXTT2=
EXTT3=
EXTT4=
EXTT5=
EXTT6=
EXTT7=
EXTT8=
EXTT9=
EXTT10=
EXTT11=
EXTT12=
EXTT13=
EXTT14=
EXTT15=
PLAYORDER=
